name analog
datacolumns 19
datarows 58
range 0.0 0.0285
endheader
time	ground_force_vx	ground_force_vy	ground_force_vz	ground_force_px	ground_force_py	ground_force_pz	l_ground_force_vx	l_ground_force_vy	l_ground_force_vz	l_ground_force_px	l_ground_force_py	l_ground_force_pz	ground_torque_x	ground_torque_y	ground_torque_z	l_ground_torque_x	l_ground_torque_y	l_ground_torque_z
0.0	-0.0	-0.0	-0.0	-0.0	-0.0	-0.0	3.5485551357269287	4.016126155853272	-754.7303466796875	-0.0	-0.0	-0.0	-0.0	-0.0	-0.0	211477.859375	4354.9501953125	-238.70726013183597
0.0005	-0.0	-0.0	-0.0	-0.0	-0.0	-0.0	3.341700792312622	4.141392230987549	-755.176513671875	-0.0	-0.0	-0.0	-0.0	-0.0	-0.0	211900.3125	4080.39990234375	-240.67953491210935
0.001	-0.0	-0.0	-0.0	-0.0	-0.0	-0.0	3.799849510192871	4.480069160461426	-753.9453125	-0.0	-0.0	-0.0	-0.0	-0.0	-0.0	211670.015625	3588.103271484375	-90.12357330322266
0.0015	-0.0	-0.0	-0.0	-0.0	-0.0	-0.0	3.374975681304932	4.572665214538574	-754.7515869140625	-0.0	-0.0	-0.0	-0.0	-0.0	-0.0	211634.203125	3290.158203125	-60.60050582885742
0.002	-0.0	-0.0	-0.0	-0.0	-0.0	-0.0	3.706132650375366	4.888189315795898	-754.971923828125	-0.0	-0.0	-0.0	-0.0	-0.0	-0.0	211739.671875	3106.79931640625	58.600093841552734
0.0025	-0.0	-0.0	-0.0	-0.0	-0.0	-0.0	4.071146011352539	4.719081401824951	-754.7906494140625	-0.0	-0.0	-0.0	-0.0	-0.0	-0.0	211684.109375	2957.625	60.22872161865234
0.003	-0.0	-0.0	-0.0	-0.0	-0.0	-0.0	3.925434112548828	4.894805908203125	-755.1024169921875	-0.0	-0.0	-0.0	-0.0	-0.0	-0.0	211997.609375	2724.85107421875	166.39625549316406
0.0035	-0.0	-0.0	-0.0	-0.0	-0.0	-0.0	4.22325611114502	5.064270973205566	-755.4085693359375	-0.0	-0.0	-0.0	-0.0	-0.0	-0.0	212043.703125	2412.5439453125	137.7674102783203
0.004	-0.0	-0.0	-0.0	-0.0	-0.0	-0.0	4.419158458709717	5.12967586517334	-755.8258056640625	-0.0	-0.0	-0.0	-0.0	-0.0	-0.0	212092.53125	2264.222900390625	257.7540283203125
0.0045000000000000005	-0.0	-0.0	-0.0	-0.0	-0.0	-0.0	4.472700595855713	5.262302875518799	-756.0228881835938	-0.0	-0.0	-0.0	-0.0	-0.0	-0.0	212425.84375	2132.438232421875	419.8141479492188
0.005	-0.0	-0.0	-0.0	-0.0	-0.0	-0.0	4.680466175079346	5.036579132080078	-757.4857177734375	-0.0	-0.0	-0.0	-0.0	-0.0	-0.0	212180.390625	1904.9423828125	413.7021484375
0.0055	-0.0	-0.0	-0.0	-0.0	-0.0	-0.0	5.048811912536621	4.8227386474609375	-758.218994140625	-0.0	-0.0	-0.0	-0.0	-0.0	-0.0	212199.0	1811.68701171875	469.2091064453125
0.006	-0.0	-0.0	-0.0	-0.0	-0.0	-0.0	5.256782054901123	4.741022109985352	-757.5515747070312	-0.0	-0.0	-0.0	-0.0	-0.0	-0.0	212557.796875	1501.4539794921875	664.2182006835938
0.006500000000000001	-0.0	-0.0	-0.0	-0.0	-0.0	-0.0	5.748061180114746	4.646908283233643	-758.07958984375	-0.0	-0.0	-0.0	-0.0	-0.0	-0.0	212764.421875	1505.271240234375	569.5498046875
0.007	-0.0	-0.0	-0.0	-0.0	-0.0	-0.0	5.741777896881104	4.486796855926514	-757.5994262695312	-0.0	-0.0	-0.0	-0.0	-0.0	-0.0	212616.46875	1258.7908935546875	862.2491455078125
0.0075	-0.0	-0.0	-0.0	-0.0	-0.0	-0.0	5.8724799156188965	4.3719868659973145	-757.486572265625	-0.0	-0.0	-0.0	-0.0	-0.0	-0.0	212508.75	1313.949462890625	874.379638671875
0.008	-0.0	-0.0	-0.0	-0.0	-0.0	-0.0	5.930263996124268	4.257081508636475	-759.072998046875	-0.0	-0.0	-0.0	-0.0	-0.0	-0.0	212387.828125	1116.9700927734375	901.8905639648438
0.0085	-0.0	-0.0	-0.0	-0.0	-0.0	-0.0	5.7750115394592285	3.762745141983032	-756.995361328125	-0.0	-0.0	-0.0	-0.0	-0.0	-0.0	211994.421875	1046.7156982421875	803.0458984375
0.009000000000000001	-0.0	-0.0	-0.0	-0.0	-0.0	-0.0	5.908038139343262	4.027821063995361	-757.4835205078125	-0.0	-0.0	-0.0	-0.0	-0.0	-0.0	211707.859375	917.1749267578124	877.3212280273438
0.0095	-0.0	-0.0	-0.0	-0.0	-0.0	-0.0	5.8862714767456055	3.6211671829223633	-757.8848876953125	-0.0	-0.0	-0.0	-0.0	-0.0	-0.0	211802.0625	820.31884765625	908.7080078125
0.01	-0.0	-0.0	-0.0	-0.0	-0.0	-0.0	5.744600296020508	3.3933300971984863	-757.3922119140625	-0.0	-0.0	-0.0	-0.0	-0.0	-0.0	211547.84375	825.2991333007812	995.04931640625
0.0105	-0.0	-0.0	-0.0	-0.0	-0.0	-0.0	5.79197359085083	3.2251367568969727	-756.4315185546875	-0.0	-0.0	-0.0	-0.0	-0.0	-0.0	211435.640625	645.6500854492188	1007.7704467773438
0.011	-0.0	-0.0	-0.0	-0.0	-0.0	-0.0	6.021704196929932	3.0500946044921875	-758.3992309570312	-0.0	-0.0	-0.0	-0.0	-0.0	-0.0	211486.609375	735.9231567382812	894.2677001953125
0.0115	-0.0	-0.0	-0.0	-0.0	-0.0	-0.0	5.749162673950195	2.7294745445251465	-759.371826171875	-0.0	-0.0	-0.0	-0.0	-0.0	-0.0	211122.09375	503.8773193359375	922.9456176757812
0.012	-0.0	-0.0	-0.0	-0.0	-0.0	-0.0	5.654133796691895	2.5350801944732666	-760.769287109375	-0.0	-0.0	-0.0	-0.0	-0.0	-0.0	210913.78125	480.971435546875	960.2308349609376
0.0125	-0.0	-0.0	-0.0	-0.0	-0.0	-0.0	5.791195392608643	2.1748626232147217	-758.7064208984375	-0.0	-0.0	-0.0	-0.0	-0.0	-0.0	210954.21875	322.0334777832031	908.5220336914062
0.013000000000000001	-0.0	-0.0	-0.0	-0.0	-0.0	-0.0	5.514590740203857	1.954850435256958	-758.3818359375	-0.0	-0.0	-0.0	-0.0	-0.0	-0.0	210778.5	577.0980224609375	1037.327392578125
0.0135	-0.0	-0.0	-0.0	-0.0	-0.0	-0.0	5.588801383972168	1.726310133934021	-758.8810424804688	-0.0	-0.0	-0.0	-0.0	-0.0	-0.0	210501.578125	348.2829284667969	952.2916259765624
0.014	-0.0	-0.0	-0.0	-0.0	-0.0	-0.0	5.741973400115967	1.8045674562454224	-757.6917724609375	-0.0	-0.0	-0.0	-0.0	-0.0	-0.0	210549.0	445.0990905761719	911.9452514648438
0.0145	-0.0	-0.0	-0.0	-0.0	-0.0	-0.0	5.806243419647217	1.5655628442764282	-757.3736572265625	-0.0	-0.0	-0.0	-0.0	-0.0	-0.0	210494.5	508.11468505859375	926.8246459960938
0.015	-0.0	-0.0	-0.0	-0.0	-0.0	-0.0	5.3972039222717285	1.8185782432556152	-758.21484375	-0.0	-0.0	-0.0	-0.0	-0.0	-0.0	210124.15625	268.9522399902344	808.5816650390625
0.0155	-0.0	-0.0	-0.0	-0.0	-0.0	-0.0	5.77486515045166	2.0958504676818848	-757.499755859375	-0.0	-0.0	-0.0	-0.0	-0.0	-0.0	210111.484375	281.67254638671875	910.7021484375
0.016	-0.0	-0.0	-0.0	-0.0	-0.0	-0.0	5.812801361083984	2.1492409706115723	-756.6428833007812	-0.0	-0.0	-0.0	-0.0	-0.0	-0.0	209930.859375	339.0941162109375	903.4887084960938
0.0165	-0.0	-0.0	-0.0	-0.0	-0.0	-0.0	5.985222339630127	2.6496505737304688	-756.262451171875	-0.0	-0.0	-0.0	-0.0	-0.0	-0.0	210104.453125	62.81937026977539	886.9741821289062
0.017	-0.0	-0.0	-0.0	-0.0	-0.0	-0.0	5.99384880065918	2.958824157714844	-756.3087158203125	-0.0	-0.0	-0.0	-0.0	-0.0	-0.0	209860.296875	191.6551513671875	1000.5306396484376
0.0175	-0.0	-0.0	-0.0	-0.0	-0.0	-0.0	5.825996398925781	3.3043112754821777	-757.135009765625	-0.0	-0.0	-0.0	-0.0	-0.0	-0.0	209789.390625	228.60862731933597	955.48583984375
0.018000000000000002	-0.0	-0.0	-0.0	-0.0	-0.0	-0.0	6.040053367614746	3.6238975524902335	-757.0286865234375	-0.0	-0.0	-0.0	-0.0	-0.0	-0.0	209885.0	271.5749816894531	926.2249145507812
0.0185	-0.0	-0.0	-0.0	-0.0	-0.0	-0.0	6.0323333740234375	3.966877222061157	-757.5689086914062	-0.0	-0.0	-0.0	-0.0	-0.0	-0.0	209759.921875	60.60736846923828	951.994873046875
0.019	-0.0	-0.0	-0.0	-0.0	-0.0	-0.0	6.073409080505371	3.869742393493652	-756.583984375	-0.0	-0.0	-0.0	-0.0	-0.0	-0.0	209593.21875	26.43257141113281	939.8901977539062
0.0195	-0.0	-0.0	-0.0	-0.0	-0.0	-0.0	6.291111946105957	4.187735557556152	-757.51123046875	-0.0	-0.0	-0.0	-0.0	-0.0	-0.0	209710.765625	-145.45870971679688	1003.0679931640624
0.02	-0.0	-0.0	-0.0	-0.0	-0.0	-0.0	6.398131847381592	4.236018180847168	-757.134521484375	-0.0	-0.0	-0.0	-0.0	-0.0	-0.0	209553.796875	-127.74136352539062	1047.5982666015625
0.0205	-0.0	-0.0	-0.0	-0.0	-0.0	-0.0	6.734645843505859	4.187826156616211	-757.7470092773438	-0.0	-0.0	-0.0	-0.0	-0.0	-0.0	209625.78125	-210.7149810791016	1004.492431640625
0.021	-0.0	-0.0	-0.0	-0.0	-0.0	-0.0	7.2892165184021	4.265128135681152	-756.2831420898438	-0.0	-0.0	-0.0	-0.0	-0.0	-0.0	209029.0625	-575.4124755859375	1232.95361328125
0.021500000000000002	-0.0	-0.0	-0.0	-0.0	-0.0	-0.0	8.040132522583008	3.8528027534484863	-756.875244140625	-0.0	-0.0	-0.0	-0.0	-0.0	-0.0	208782.453125	-787.765380859375	1399.70654296875
0.022	-0.0	-0.0	-0.0	-0.0	-0.0	-0.0	8.541522026062012	3.413571119308472	-757.2940673828125	-0.0	-0.0	-0.0	-0.0	-0.0	-0.0	208335.078125	-1135.2176513671875	1670.3753662109375
0.0225	-0.0	-0.0	-0.0	-0.0	-0.0	-0.0	8.761016845703125	2.9287872314453125	-757.3378295898438	-0.0	-0.0	-0.0	-0.0	-0.0	-0.0	208077.21875	-1145.19580078125	1806.961669921875
0.023	-0.0	-0.0	-0.0	-0.0	-0.0	-0.0	9.016509056091309	2.277805089950561	-755.6416015625	-0.0	-0.0	-0.0	-0.0	-0.0	-0.0	207707.9375	-1329.806884765625	1734.570556640625
0.0235	-0.0	-0.0	-0.0	-0.0	-0.0	-0.0	9.065001487731934	1.7967286109924316	-755.1326904296875	-0.0	-0.0	-0.0	-0.0	-0.0	-0.0	207178.21875	-1421.1561279296875	1814.387451171875
0.024	-0.0	-0.0	-0.0	-0.0	-0.0	-0.0	8.961084365844727	0.7507541179656982	-753.0309448242188	-0.0	-0.0	-0.0	-0.0	-0.0	-0.0	206601.8125	-1323.6175537109375	1891.7984619140625
0.0245	-0.0	-0.0	-0.0	-0.0	-0.0	-0.0	8.952878952026367	-0.5299301147460938	-752.662109375	-0.0	-0.0	-0.0	-0.0	-0.0	-0.0	205938.8125	-1188.8726806640625	1939.0167236328125
0.025	-0.0	-0.0	-0.0	-0.0	-0.0	-0.0	8.79094409942627	-1.1756402254104614	-751.6098022460938	-0.0	-0.0	-0.0	-0.0	-0.0	-0.0	205539.578125	-1374.5546875	1865.69287109375
0.025500000000000002	-0.0	-0.0	-0.0	-0.0	-0.0	-0.0	8.4445161819458	-2.1095526218414307	-750.6893310546875	-0.0	-0.0	-0.0	-0.0	-0.0	-0.0	204999.03125	-1208.3353271484375	1811.5098876953125
0.026000000000000002	-0.0	-0.0	-0.0	-0.0	-0.0	-0.0	7.816669940948486	-2.69713830947876	-749.627197265625	-0.0	-0.0	-0.0	-0.0	-0.0	-0.0	204347.671875	-1289.3638916015625	1610.132568359375
0.0265	-0.0	-0.0	-0.0	-0.0	-0.0	-0.0	7.5822834968566895	-3.117909669876098	-749.9249877929688	-0.0	-0.0	-0.0	-0.0	-0.0	-0.0	203723.4375	-799.5490112304688	1506.2779541015625
0.027	-0.0	-0.0	-0.0	-0.0	-0.0	-0.0	7.051865100860596	-3.622833013534546	-750.13525390625	-0.0	-0.0	-0.0	-0.0	-0.0	-0.0	203779.875	-1097.8248291015625	1332.32763671875
0.0275	-0.0	-0.0	-0.0	-0.0	-0.0	-0.0	6.954017639160156	-4.066085338592529	-749.6280517578125	-0.0	-0.0	-0.0	-0.0	-0.0	-0.0	203546.796875	-760.9042358398438	1095.3984375
0.028	-0.0	-0.0	-0.0	-0.0	-0.0	-0.0	6.686266899108887	-4.433328628540039	-750.5952758789062	-0.0	-0.0	-0.0	-0.0	-0.0	-0.0	203789.453125	-738.1839599609375	956.3331298828124
0.0285	-0.0	-0.0	-0.0	-0.0	-0.0	-0.0	6.811493873596191	-4.5927276611328125	-750.3772583007812	-0.0	-0.0	-0.0	-0.0	-0.0	-0.0	203512.0	-866.0387573242188	1003.6783447265624
